<?xml version="1.0" encoding="utf-8"?>
<!-- Generator: Adobe Illustrator 24.0.3, SVG Export Plug-In . SVG Version: 6.00 Build 0)  -->
<svg version="1.1" id="Layer_1" xmlns="http://www.w3.org/2000/svg" xmlns:xlink="http://www.w3.org/1999/xlink" x="0px" y="0px"
	 viewBox="0 0 138 90" style="enable-background:new 0 0 138 90;" xml:space="preserve">
<style type="text/css">
	.st0{fill:#FFFFFF;}
</style>
<g>
	<rect width="138" height="69"/>
	<rect x="24.8" y="20.5" class="st0" width="6.7" height="28.1"/>
	<polygon class="st0" points="56,48.7 49.6,39.3 43.1,48.7 35.9,48.7 45.9,34.5 36.4,20.5 43.5,20.5 49.7,29.7 55.8,20.5 63,20.5 
		53.5,34.5 63.2,48.7 	"/>
	<path class="st0" d="M90.3,39.2c0,5.5-2,9.5-10.4,9.5H67.2V20.5h12.7c8.4,0,10.4,4.1,10.4,9.5V39.2z"/>
	<path class="st0" d="M104.6,49.1c-3.1,0-7.1-0.6-10-1.8l1.1-5.1c2.5,0.8,6.1,1.4,9,1.4c3.6,0,4.4-0.7,4.4-2.8c0-2-0.2-2.6-5.7-3.8
		c-7.7-1.7-8.4-3.8-8.4-9.1c0-6,3.4-8,10.9-8c2.7,0,6.6,0.4,9.3,1.2l-0.8,5.4c-3-0.7-6.1-1-8.5-1c-3.6,0-4.3,0.4-4.3,2.6
		c0,2.4,0.2,2.5,5.6,3.8c8,1.9,8.6,3.1,8.6,8.6C115.8,46.4,113.6,49.2,104.6,49.1z"/>
	<path d="M79.6,26.2H74v16.8h5.6c3,0,4.2-1.2,4.2-3.8V30C83.8,27.4,82.6,26.2,79.6,26.2z"/>
	<g>
		<g>
			<path d="M4.5,77.6c1.2,0,1.8,0.1,2.3,0.3c0.7,0.4,1.1,1,1.1,1.9c0,2.1-1.8,3.5-4.2,3.5c-0.2,0-0.3,0-0.9,0l-0.5,2.7l0.1,0.2
				l0.9,0.1V87H0v-0.5l0.9-0.1l0.2-0.2l1.5-7.7l-0.2-0.2l-0.9-0.1v-0.5H4.5z M3,82.8c0.3,0,0.4,0,0.5,0c2,0,3.2-1,3.2-2.8
				c0-1.2-0.7-1.8-2.2-1.8c-0.2,0-0.2,0-0.6,0L3,82.8z"/>
		</g>
		<g>
			<path d="M14,80.3c-0.2,0.3-0.3,1-0.5,2L13,84.7c-0.1,0.5-0.1,0.8-0.1,1c0,0.4,0.2,0.6,0.7,0.6c0.2,0,0.3,0,0.8-0.1v0.4
				c-0.9,0.4-1.3,0.5-1.8,0.5c-0.6,0-0.8-0.3-0.8-1.2c-0.8,0.8-1.4,1.2-2.1,1.2c-1.2,0-1.9-0.9-1.9-2.4c0-2.4,1.7-4.4,3.8-4.4
				c0.5,0,0.9,0.1,1.4,0.3l0.3-0.3H14z M12,80.8c-0.1,0-0.2,0-0.2,0c-1.6,0-2.8,1.6-2.8,3.8c0,1.1,0.4,1.7,1.2,1.7
				c0.6,0,1-0.2,1.7-0.9l0.7-3.7L12,80.8z"/>
		</g>
		<g>
			<path d="M17.6,80.3l-0.4,1.9c1-1.3,1.7-1.9,2.5-1.9c0.4,0,0.7,0.3,0.7,0.8c0,0.5-0.4,0.9-1,0.9h-0.1L19,81.2
				c-1.3,0.5-1.8,1.1-2,2.6L16.4,87h-1.2l1.2-5.7l-1.1-0.2v-0.3l2.1-0.5H17.6z"/>
		</g>
		<g>
			<path d="M23.5,78.9l-0.3,1.6h2v0.6h-2.1l-0.7,3.7c-0.1,0.3-0.1,0.5-0.1,0.6c0,0.5,0.3,0.8,0.8,0.8c0.4,0,0.8-0.1,1.3-0.3v0.4
				c-1,0.4-1.7,0.6-2.2,0.6c-0.7,0-1.1-0.4-1.1-1.3c0-0.3,0-0.5,0.1-0.9l0.7-3.8l-0.9,0.1v-0.4l1-0.4l0.7-1.4H23.5z"/>
		</g>
		<g>
			<path d="M34.2,83c0,2.3-1.6,4.1-3.6,4.1c-1.4,0-2.4-1-2.4-2.6c0-2.4,1.6-4.2,3.6-4.2C33.3,80.3,34.2,81.3,34.2,83z M29.4,84.4
				c0,1.3,0.5,2.1,1.3,2.1c1.3,0,2.2-1.6,2.2-3.6c0-1.4-0.5-2.1-1.4-2.1C30.4,80.8,29.4,82.4,29.4,84.4z"/>
		</g>
		<g>
			<path d="M38.7,77.4c-0.5,0.3-0.9,1.4-1.2,3.2h2v0.6h-2.1l-0.6,4c-0.2,1.5-0.5,2.4-1,3.1c-0.7,1-1.5,1.6-2.2,1.6
				c-0.4,0-0.7-0.3-0.7-0.7c0-0.2,0.1-0.4,0.3-0.6l1.4,0.4c0.6-0.6,0.8-1.4,1.2-3.8l0.6-4l-0.9,0.1v-0.5l1.1-0.4
				c0.4-2.2,1.6-3.7,2.9-3.7c0.6,0,1.2,0.4,1.2,0.8c0,0.3-0.2,0.6-0.7,0.7L38.7,77.4z"/>
		</g>
		<g>
			<path d="M44.7,78.9l-0.3,1.6h2v0.6h-2.1l-0.7,3.7c-0.1,0.3-0.1,0.5-0.1,0.6c0,0.5,0.3,0.8,0.8,0.8c0.4,0,0.8-0.1,1.3-0.3v0.4
				c-1,0.4-1.7,0.6-2.2,0.6c-0.7,0-1.1-0.4-1.1-1.3c0-0.3,0-0.5,0.1-0.9l0.7-3.8l-0.9,0.1v-0.4l1-0.4l0.7-1.4H44.7z"/>
		</g>
		<g>
			<path d="M49.8,76.7c-0.3,1-0.4,1.7-0.6,2.5l-0.5,2.4c1.3-1,1.9-1.3,2.7-1.3c0.7,0,1.1,0.4,1.1,1.1c0,0.3,0,0.6-0.2,1.3l-0.5,2.2
				c-0.1,0.4-0.1,0.7-0.1,0.9c0,0.4,0.3,0.7,0.7,0.7c0.2,0,0.4,0,0.8-0.1v0.4c-0.8,0.3-1.3,0.4-1.7,0.4c-0.7,0-1-0.3-1-0.9
				c0-0.2,0-0.5,0.1-0.7l0.6-2.6c0.1-0.4,0.1-0.7,0.1-0.9c0-0.5-0.3-0.8-0.7-0.8c-0.6,0-1.3,0.4-2.1,1.1L47.8,87h-1.2l1.9-9.3
				l-1.3-0.1v-0.4l2.2-0.4H49.8z"/>
		</g>
		<g>
			<path d="M58.9,85.9c-0.9,0.9-1.8,1.3-2.7,1.3c-1.3,0-2.1-0.9-2.1-2.5c0-1.4,0.6-2.8,1.7-3.6c0.6-0.5,1.3-0.7,1.8-0.7
				c0.8,0,1.4,0.6,1.4,1.4c0,1.3-1.3,2.1-3.8,2.3c0,0.2,0,0.4,0,0.6c0,1.1,0.5,1.9,1.4,1.9c0.7,0,1.4-0.3,2.3-1.1V85.9z M57.2,82.9
				c0.5-0.3,0.8-0.8,0.8-1.3c0-0.4-0.3-0.8-0.7-0.8c-0.8,0-1.6,0.9-2,2.6C56.2,83.4,56.7,83.2,57.2,82.9z"/>
		</g>
		<g>
			<path d="M66.6,77.6c1.2,0,1.8,0.1,2.3,0.3c0.7,0.4,1.1,1,1.1,1.9c0,2.1-1.8,3.5-4.2,3.5c-0.2,0-0.3,0-0.9,0l-0.5,2.7l0.1,0.2
				l0.9,0.1V87h-3.3v-0.5l0.9-0.1l0.2-0.2l1.5-7.7l-0.2-0.2l-0.9-0.1v-0.5H66.6z M65.1,82.8c0.3,0,0.4,0,0.5,0c2,0,3.2-1,3.2-2.8
				c0-1.2-0.7-1.8-2.2-1.8c-0.2,0-0.2,0-0.6,0L65.1,82.8z"/>
		</g>
		<g>
			<path d="M72.6,80.3l0.3,5.5c1.5-2.9,1.9-3.6,2.6-5.2l0.8-0.1c0.1,1.7,0.2,3.1,0.4,5.5c0.3-0.4,0.5-0.6,0.7-0.9
				c0.8-1.2,1.3-2.1,1.6-2.8l-0.3-1.6c0.2-0.2,0.4-0.3,0.7-0.3c0.4,0,0.7,0.3,0.7,0.7c0,1-0.7,2.2-3.6,6h-0.8l-0.3-4.9
				c-0.6,1.3-1.2,2.3-2.7,4.9h-0.9l0.1-0.3l-0.4-5.5l-1-0.1v-0.3l1.6-0.5L72.6,80.3z"/>
		</g>
		<g>
			<path d="M88.3,80.1h-0.6v-1.3l-0.1-0.3c-0.5-0.3-0.9-0.3-1.5-0.3c-2.4,0-4.2,2.3-4.2,5.2c0,2,1,3.1,2.8,3.1c0.4,0,0.7,0,1.2-0.2
				l0.3-0.2l0.6-1.6h0.6l-0.4,2.2c-1.1,0.3-1.9,0.5-2.8,0.5c-2.3,0-3.8-1.5-3.8-3.9c0-3.2,2.5-5.8,5.6-5.8c0.8,0,1.5,0.1,2.5,0.5
				L88.3,80.1z"/>
		</g>
		<g>
			<path d="M94.1,80.3l-0.3,1.3c1.3-1,2-1.3,2.7-1.3c0.7,0,1.1,0.5,1.1,1.1c0,0.3,0,0.6-0.2,1.3l-0.5,2.2c-0.1,0.5-0.2,0.8-0.2,0.9
				c0,0.4,0.3,0.7,0.7,0.7c0.2,0,0.4,0,0.8-0.1v0.4c-0.9,0.3-1.3,0.4-1.7,0.4c-0.6,0-1-0.3-1-0.8c0-0.2,0-0.4,0.1-0.8l0.6-2.6
				c0.1-0.3,0.1-0.7,0.1-0.9c0-0.6-0.2-0.9-0.7-0.9c-0.6,0-1.2,0.3-2.1,1.2L92.9,87h-1.2l1.2-5.7l-1.1-0.2v-0.3l2.1-0.5H94.1z"/>
		</g>
		<g>
			<path d="M104,85.9c-0.9,0.9-1.8,1.3-2.7,1.3c-1.3,0-2.1-0.9-2.1-2.5c0-1.4,0.6-2.8,1.7-3.6c0.6-0.5,1.3-0.7,1.8-0.7
				c0.8,0,1.4,0.6,1.4,1.4c0,1.3-1.3,2.1-3.8,2.3c0,0.2,0,0.4,0,0.6c0,1.1,0.5,1.9,1.4,1.9c0.7,0,1.4-0.3,2.3-1.1V85.9z M102.3,82.9
				c0.5-0.3,0.8-0.8,0.8-1.3c0-0.4-0.3-0.8-0.7-0.8c-0.8,0-1.6,0.9-2,2.6C101.3,83.4,101.8,83.2,102.3,82.9z"/>
		</g>
		<g>
			<path d="M107.7,78.9l-0.3,1.6h2v0.6h-2.1l-0.7,3.7c-0.1,0.3-0.1,0.5-0.1,0.6c0,0.5,0.3,0.8,0.8,0.8c0.4,0,0.8-0.1,1.3-0.3v0.4
				c-1,0.4-1.7,0.6-2.2,0.6c-0.7,0-1.1-0.4-1.1-1.3c0-0.3,0-0.5,0.1-0.9l0.7-3.8l-0.9,0.1v-0.4l1-0.4l0.7-1.4H107.7z"/>
		</g>
		<g>
			<path d="M111.9,80.3l0.3,5.5c1.5-2.9,1.9-3.6,2.6-5.2l0.8-0.1c0.1,1.7,0.2,3.1,0.4,5.5c0.3-0.4,0.5-0.6,0.7-0.9
				c0.8-1.2,1.3-2.1,1.6-2.8l-0.3-1.6c0.2-0.2,0.4-0.3,0.7-0.3c0.4,0,0.7,0.3,0.7,0.7c0,1-0.7,2.2-3.6,6H115l-0.3-4.9
				c-0.6,1.3-1.2,2.3-2.7,4.9h-0.9l0.1-0.3l-0.4-5.5l-1-0.1v-0.3l1.6-0.5L111.9,80.3z"/>
		</g>
		<g>
			<path d="M125.4,83c0,2.3-1.6,4.1-3.6,4.1c-1.4,0-2.4-1-2.4-2.6c0-2.4,1.6-4.2,3.6-4.2C124.5,80.3,125.4,81.3,125.4,83z
				 M120.7,84.4c0,1.3,0.5,2.1,1.3,2.1c1.3,0,2.2-1.6,2.2-3.6c0-1.4-0.5-2.1-1.4-2.1C121.7,80.8,120.7,82.4,120.7,84.4z"/>
		</g>
		<g>
			<path d="M128.6,80.3l-0.4,1.9c1-1.3,1.7-1.9,2.5-1.9c0.4,0,0.7,0.3,0.7,0.8c0,0.5-0.4,0.9-1,0.9h-0.1l-0.4-0.8
				c-1.3,0.5-1.8,1.1-2,2.6l-0.6,3.3h-1.2l1.2-5.7l-1.1-0.2v-0.3l2.1-0.5H128.6z"/>
		</g>
		<g>
			<path d="M134.7,76.7l-1.5,6.9l2.6-2.7c0.5-0.5,0.9-0.8,1.2-0.8c0.4,0,0.8,0.3,0.8,0.7c0,0.4-0.2,0.6-0.8,0.9l-0.5-0.5
				c-0.6,0.4-0.9,0.7-1.8,1.5c0.7,1.7,0.9,2,1.3,2.6c0.4,0.7,0.8,1,1.3,1c0.2,0,0.4,0,0.7-0.1v0.4c-0.9,0.3-1.3,0.4-1.7,0.4
				c-0.5,0-0.9-0.3-1.3-1.1l-1.2-2.4l-0.8,0.7l-0.4,2.7h-1.2l1.9-9.4l-1.3-0.1v-0.4l2.2-0.4H134.7z"/>
		</g>
	</g>
</g>
</svg>
